<svg width="100" height="100" viewBox="0 0 100 100" fill="none" xmlns="http://www.w3.org/2000/svg">
<rect width="100" height="100" rx="16.6667" fill="#EBF9FF"/>
<path d="M27 29.4375L31.2716 71.9551L50.5 77.5625L69.7284 71.9551L74 29.4375H27ZM65.3221 38.0312L64.7346 43.1123L50.6224 48.4082L50.5857 48.4189H64.2328L62.6661 64.167L50.6469 67.25L38.5542 64.1133L37.7708 56.1748H43.756L44.1477 60.2891L50.5857 61.7178L57.2807 60.0635L57.7336 53.4463L37.3792 53.3926V53.3818L37.3547 53.3926L36.9141 48.4189L50.6346 43.4023L51.4302 43.1123H36.3878L35.6779 38.0312H65.3221Z" fill="#012454"/>
<path d="M42.447 26.208C41.485 26.208 40.6183 26.0087 39.847 25.61C39.0757 25.2027 38.469 24.6393 38.027 23.92C37.5937 23.192 37.377 22.3687 37.377 21.45C37.377 20.5313 37.5937 19.7123 38.027 18.993C38.469 18.265 39.0757 17.7017 39.847 17.303C40.6183 16.8957 41.485 16.692 42.447 16.692C43.331 16.692 44.1197 16.848 44.813 17.16C45.5063 17.472 46.0783 17.9227 46.529 18.512L44.592 20.241C44.0287 19.5303 43.3657 19.175 42.603 19.175C41.9617 19.175 41.446 19.383 41.056 19.799C40.666 20.2063 40.471 20.7567 40.471 21.45C40.471 22.1433 40.666 22.698 41.056 23.114C41.446 23.5213 41.9617 23.725 42.603 23.725C43.3657 23.725 44.0287 23.3697 44.592 22.659L46.529 24.388C46.0783 24.9773 45.5063 25.428 44.813 25.74C44.1197 26.052 43.331 26.208 42.447 26.208ZM50.6809 26.208C49.9269 26.208 49.1902 26.1257 48.4709 25.961C47.7602 25.7877 47.1752 25.558 46.7159 25.272L47.7039 23.036C48.1372 23.2873 48.6225 23.491 49.1599 23.647C49.6972 23.7943 50.2129 23.868 50.7069 23.868C51.1315 23.868 51.4349 23.829 51.6169 23.751C51.7989 23.6643 51.8899 23.5387 51.8899 23.374C51.8899 23.1833 51.7685 23.0403 51.5259 22.945C51.2919 22.8497 50.9019 22.7457 50.3559 22.633C49.6539 22.4857 49.0689 22.3297 48.6009 22.165C48.1329 21.9917 47.7255 21.7143 47.3789 21.333C47.0322 20.943 46.8589 20.4187 46.8589 19.76C46.8589 19.188 47.0192 18.668 47.3399 18.2C47.6605 17.732 48.1372 17.3637 48.7699 17.095C49.4112 16.8263 50.1869 16.692 51.0969 16.692C51.7209 16.692 52.3319 16.7613 52.9299 16.9C53.5365 17.03 54.0695 17.225 54.5289 17.485L53.6059 19.708C52.7132 19.2573 51.8682 19.032 51.0709 19.032C50.2822 19.032 49.8879 19.2227 49.8879 19.604C49.8879 19.786 50.0049 19.9247 50.2389 20.02C50.4729 20.1067 50.8585 20.202 51.3959 20.306C52.0892 20.436 52.6742 20.5877 53.1509 20.761C53.6275 20.9257 54.0392 21.1987 54.3859 21.58C54.7412 21.9613 54.9189 22.4813 54.9189 23.14C54.9189 23.712 54.7585 24.232 54.4379 24.7C54.1172 25.1593 53.6362 25.5277 52.9949 25.805C52.3622 26.0737 51.5909 26.208 50.6809 26.208ZM59.2248 26.208C58.4708 26.208 57.7342 26.1257 57.0148 25.961C56.3042 25.7877 55.7192 25.558 55.2598 25.272L56.2478 23.036C56.6812 23.2873 57.1665 23.491 57.7038 23.647C58.2412 23.7943 58.7568 23.868 59.2508 23.868C59.6755 23.868 59.9788 23.829 60.1608 23.751C60.3428 23.6643 60.4338 23.5387 60.4338 23.374C60.4338 23.1833 60.3125 23.0403 60.0698 22.945C59.8358 22.8497 59.4458 22.7457 58.8998 22.633C58.1978 22.4857 57.6128 22.3297 57.1448 22.165C56.6768 21.9917 56.2695 21.7143 55.9228 21.333C55.5762 20.943 55.4028 20.4187 55.4028 19.76C55.4028 19.188 55.5632 18.668 55.8838 18.2C56.2045 17.732 56.6812 17.3637 57.3138 17.095C57.9552 16.8263 58.7308 16.692 59.6408 16.692C60.2648 16.692 60.8758 16.7613 61.4738 16.9C62.0805 17.03 62.6135 17.225 63.0728 17.485L62.1498 19.708C61.2572 19.2573 60.4122 19.032 59.6148 19.032C58.8262 19.032 58.4318 19.2227 58.4318 19.604C58.4318 19.786 58.5488 19.9247 58.7828 20.02C59.0168 20.1067 59.4025 20.202 59.9398 20.306C60.6332 20.436 61.2182 20.5877 61.6948 20.761C62.1715 20.9257 62.5832 21.1987 62.9298 21.58C63.2852 21.9613 63.4628 22.4813 63.4628 23.14C63.4628 23.712 63.3025 24.232 62.9818 24.7C62.6612 25.1593 62.1802 25.5277 61.5388 25.805C60.9062 26.0737 60.1348 26.208 59.2248 26.208Z" fill="#012454"/>
</svg>
