<svg width="100" height="100" viewBox="0 0 100 100" fill="none" xmlns="http://www.w3.org/2000/svg">
<rect width="100" height="100" rx="16.6667" fill="#EBF9FF"/>
<path d="M38.6025 30.288C37.2705 30.288 36.0705 30.012 35.0025 29.46C33.9345 28.896 33.0945 28.116 32.4825 27.12C31.8825 26.112 31.5825 24.972 31.5825 23.7C31.5825 22.428 31.8825 21.294 32.4825 20.298C33.0945 19.29 33.9345 18.51 35.0025 17.958C36.0705 17.394 37.2705 17.112 38.6025 17.112C39.8265 17.112 40.9185 17.328 41.8785 17.76C42.8385 18.192 43.6305 18.816 44.2545 19.632L41.5725 22.026C40.7925 21.042 39.8745 20.55 38.8185 20.55C37.9305 20.55 37.2165 20.838 36.6765 21.414C36.1365 21.978 35.8665 22.74 35.8665 23.7C35.8665 24.66 36.1365 25.428 36.6765 26.004C37.2165 26.568 37.9305 26.85 38.8185 26.85C39.8745 26.85 40.7925 26.358 41.5725 25.374L44.2545 27.768C43.6305 28.584 42.8385 29.208 41.8785 29.64C40.9185 30.072 39.8265 30.288 38.6025 30.288ZM50.0033 30.288C48.9593 30.288 47.9393 30.174 46.9433 29.946C45.9593 29.706 45.1493 29.388 44.5133 28.992L45.8813 25.896C46.4813 26.244 47.1533 26.526 47.8973 26.742C48.6413 26.946 49.3553 27.048 50.0393 27.048C50.6273 27.048 51.0473 26.994 51.2993 26.886C51.5513 26.766 51.6773 26.592 51.6773 26.364C51.6773 26.1 51.5093 25.902 51.1733 25.77C50.8493 25.638 50.3093 25.494 49.5533 25.338C48.5813 25.134 47.7713 24.918 47.1233 24.69C46.4753 24.45 45.9113 24.066 45.4313 23.538C44.9513 22.998 44.7113 22.272 44.7113 21.36C44.7113 20.568 44.9333 19.848 45.3773 19.2C45.8213 18.552 46.4813 18.042 47.3573 17.67C48.2453 17.298 49.3193 17.112 50.5793 17.112C51.4433 17.112 52.2893 17.208 53.1173 17.4C53.9573 17.58 54.6953 17.85 55.3313 18.21L54.0533 21.288C52.8173 20.664 51.6473 20.352 50.5433 20.352C49.4513 20.352 48.9053 20.616 48.9053 21.144C48.9053 21.396 49.0673 21.588 49.3913 21.72C49.7153 21.84 50.2493 21.972 50.9933 22.116C51.9533 22.296 52.7633 22.506 53.4233 22.746C54.0833 22.974 54.6533 23.352 55.1333 23.88C55.6253 24.408 55.8713 25.128 55.8713 26.04C55.8713 26.832 55.6493 27.552 55.2053 28.2C54.7613 28.836 54.0953 29.346 53.2073 29.73C52.3313 30.102 51.2633 30.288 50.0033 30.288ZM61.8334 30.288C60.7894 30.288 59.7694 30.174 58.7734 29.946C57.7894 29.706 56.9794 29.388 56.3434 28.992L57.7114 25.896C58.3114 26.244 58.9834 26.526 59.7274 26.742C60.4714 26.946 61.1854 27.048 61.8694 27.048C62.4574 27.048 62.8774 26.994 63.1294 26.886C63.3814 26.766 63.5074 26.592 63.5074 26.364C63.5074 26.1 63.3394 25.902 63.0034 25.77C62.6794 25.638 62.1394 25.494 61.3834 25.338C60.4114 25.134 59.6014 24.918 58.9534 24.69C58.3054 24.45 57.7414 24.066 57.2614 23.538C56.7814 22.998 56.5414 22.272 56.5414 21.36C56.5414 20.568 56.7634 19.848 57.2074 19.2C57.6514 18.552 58.3114 18.042 59.1874 17.67C60.0754 17.298 61.1494 17.112 62.4094 17.112C63.2734 17.112 64.1194 17.208 64.9474 17.4C65.7874 17.58 66.5254 17.85 67.1614 18.21L65.8834 21.288C64.6474 20.664 63.4774 20.352 62.3734 20.352C61.2814 20.352 60.7354 20.616 60.7354 21.144C60.7354 21.396 60.8974 21.588 61.2214 21.72C61.5454 21.84 62.0794 21.972 62.8234 22.116C63.7834 22.296 64.5934 22.506 65.2534 22.746C65.9134 22.974 66.4834 23.352 66.9634 23.88C67.4554 24.408 67.7014 25.128 67.7014 26.04C67.7014 26.832 67.4794 27.552 67.0354 28.2C66.5914 28.836 65.9254 29.346 65.0374 29.73C64.1614 30.102 63.0934 30.288 61.8334 30.288Z" fill="#012454"/>
<path d="M30.4351 82.7019L26.0835 33.875H73.9165L69.5591 82.6942L49.9709 88.125L30.4351 82.7019Z" fill="#1572B6"/>
<path d="M50 83.9749L65.8294 79.5864L69.5533 37.8682H50V83.9749Z" fill="#33A9DC"/>
<path d="M50 55.5575H57.9244L58.4707 49.4253H50V43.4365H65.0156L64.8723 45.0427L63.4017 61.5463H50V55.5575V55.5575Z" fill="white"/>
<path d="M50.0368 71.1099L50.0097 71.1176L43.3408 69.3157L42.9146 64.5398H36.9025L37.7415 73.9425L50.0078 77.3486L50.0368 77.3409V71.1099V71.1099Z" fill="#EBEBEB"/>
<path d="M57.4148 61.2926L56.6941 69.3119L50.0155 71.1138V77.3448L62.2915 73.9425L62.3826 72.9312L63.423 61.2926H57.4148V61.2926Z" fill="white"/>
<path d="M50.0213 43.4365V49.4253H35.5559L35.4358 48.0788L35.1626 45.0427L35.0192 43.4365H50.0213V43.4365ZM50 55.5575V61.5463H43.4144L43.2943 60.1998L43.023 57.1637L42.8797 55.5575H50V55.5575Z" fill="#EBEBEB"/>
</svg>
