<svg width="100" height="100" viewBox="0 0 100 100" fill="none" xmlns="http://www.w3.org/2000/svg">
<path d="M36.875 87.1437V69.0312L23.3563 79.0062C27.1625 82.55 31.7563 85.3062 36.875 87.1437V87.1437ZM63.125 87.1437C68.2438 85.3062 72.8375 82.55 76.6438 79.0062L63.125 68.9V87.1437V87.1437ZM12.8563 63.125C13.25 64.4375 13.775 65.6188 14.4313 66.9313L19.55 63.125H12.8563ZM80.45 63.125L85.5688 66.9313C86.0938 65.75 86.6188 64.4375 87.1438 63.125H80.45Z" fill="#2A5F9E"/>
<path d="M38.8437 57.875H11.4125C11.8062 59.7125 12.3312 61.4188 12.8562 63.125H19.55L14.4312 66.9313C15.4812 69.1625 16.6625 71.1312 18.1062 73.1L31.625 63.125H36.875V65.75L21.5187 77.0375L23.3562 78.875L36.875 69.0312V87.1437C38.5812 87.8 40.2875 88.1938 42.125 88.5875V57.875H38.8437ZM88.5875 57.875H57.875V88.5875C59.7125 88.1938 61.4187 87.6687 63.125 87.1437V69.0312L76.6437 78.875C78.4812 77.1688 80.0562 75.3312 81.6312 73.3625L67.5875 63.125H76.5125L84.5187 69.0312C84.9125 68.375 85.3062 67.5875 85.5687 66.9313L80.45 63.125H87.1437C87.6687 61.4188 88.1937 59.7125 88.5875 57.875" fill="white"/>
<path d="M18.1063 73.1C19.1563 74.5438 20.2063 75.8563 21.3875 77.1688L36.875 65.8812V63.2562H31.625L18.1063 73.1ZM67.7188 63.125L81.7625 73.3625C82.2875 72.7063 82.6813 72.05 83.2063 71.3938C83.3375 71.2625 83.3375 71.1313 83.4688 71.1313C83.8625 70.475 84.3875 69.6875 84.7813 69.0313L76.5125 63.125H67.7188Z" fill="#ED4C5C"/>
<path d="M63.125 12.8563V30.9688L76.6438 20.9938C72.8375 17.45 68.2438 14.6938 63.125 12.8563ZM36.875 12.8563C31.7563 14.6938 27.1625 17.45 23.3563 20.9938L36.875 31.1V12.8563ZM87.1438 36.875C86.75 35.5625 86.225 34.3813 85.5688 33.0688L80.45 36.875H87.1438V36.875ZM19.55 36.875L14.4313 33.0688C13.9063 34.3813 13.3813 35.5625 12.8563 36.875H19.55Z" fill="#2A5F9E"/>
<path d="M61.1562 42.125H88.4562C88.0625 40.2875 87.5375 38.5812 87.0125 36.875H80.3187L85.4375 33.0687C84.3875 30.8375 83.2062 28.8687 81.7625 26.9L68.375 36.875H63.125V34.25L78.4812 22.9625L76.6437 21.125L63.125 30.9687V12.8562C61.4187 12.2 59.7125 11.8062 57.875 11.4125V42.125H61.1562ZM11.4125 42.125H42.125V11.4125C40.2875 11.8062 38.5812 12.3312 36.875 12.8562V30.9687L23.3562 21.125C21.5187 22.8312 19.9437 24.6687 18.3687 26.6375L32.4125 36.875H23.4875L15.4812 30.9687C15.0875 31.625 14.6937 32.4125 14.4312 33.0687L19.55 36.875H12.8562C12.3312 38.5812 11.8062 40.2875 11.4125 42.125Z" fill="white"/>
<path d="M81.8937 26.9C80.8437 25.4562 79.7937 24.1437 78.6125 22.8312L63.125 34.1187V36.7437H68.375L81.8937 26.9V26.9ZM32.2812 36.875L18.3687 26.6375C17.8437 27.2937 17.45 27.95 16.925 28.6062C16.7937 28.7375 16.7937 28.8687 16.6625 28.8687C16.2687 29.525 15.7437 30.3125 15.35 30.9687L23.3562 36.875H32.2812Z" fill="#ED4C5C"/>
<path d="M88.5875 42.125H57.875V11.4125C55.3813 10.8875 52.7562 10.625 50 10.625C47.2438 10.625 44.6187 10.8875 42.125 11.4125V42.125H11.4125C10.8875 44.6187 10.625 47.2438 10.625 50C10.625 52.7562 10.8875 55.3813 11.4125 57.875H42.125V88.5875C44.6187 89.1125 47.2438 89.375 50 89.375C52.7562 89.375 55.3813 89.1125 57.875 88.5875V57.875H88.5875C89.1125 55.3813 89.375 52.7562 89.375 50C89.375 47.2438 89.1125 44.6187 88.5875 42.125Z" fill="#ED4C5C"/>
</svg>
