<svg width="100" height="100" viewBox="0 0 100 100" fill="none" xmlns="http://www.w3.org/2000/svg">
<path d="M10.625 50C10.625 57.7438 12.8562 64.9625 16.6625 71H83.2063C87.0125 64.9625 89.2438 57.7438 89.2438 50C89.2438 42.2562 87.0125 35.0375 83.2063 29H16.6625C12.8562 35.0375 10.625 42.2562 10.625 50Z" fill="#FFCE31"/>
<path d="M83.3375 29C76.3812 17.975 64.0437 10.625 50 10.625C35.9562 10.625 23.6187 17.975 16.6625 29H83.3375ZM16.6625 71C23.6187 82.025 35.9562 89.375 50 89.375C64.0437 89.375 76.3812 82.025 83.3375 71H16.6625Z" fill="#ED4C5C"/>
<path d="M20.075 45.6687H24.275V48.0312H20.075V45.6687ZM20.075 62.9937H24.4062V65.2249H20.075V62.9937Z" fill="#C8B100"/>
<path d="M19.6813 59.3187C19.2875 59.5812 19.025 59.8437 19.025 59.975C19.025 60.1062 19.1563 60.2375 19.4188 60.3687C19.6813 60.5 19.9438 60.7625 19.8125 61.025C20.075 60.7625 20.2063 60.5 20.2063 60.2375C20.2063 59.8437 19.9438 59.45 19.6813 59.3187" fill="#ED4C5C"/>
<path d="M20.7312 48.0312H23.75V62.9938H20.7312V48.0312Z" fill="white"/>
<path d="M26.9 53.5438C26.2437 53.2813 25.0625 53.0187 23.75 53.0187C23.3562 53.0187 22.8312 53.0188 22.3062 53.15C20.4687 53.4125 19.025 54.2 19.1562 54.725L18.5 53.2813C18.3687 52.625 19.9437 51.8375 21.9125 51.4437C22.5687 51.3125 23.225 51.3125 23.75 51.3125C25.0625 51.3125 26.2437 51.4437 26.9 51.7062V53.5438" fill="#ED4C5C"/>
<path d="M20.7312 55.5125C19.9437 55.5125 19.2875 55.25 19.2875 54.8563C19.2875 54.5938 19.55 54.2 20.075 53.9375H20.8625L20.7312 55.5125ZM23.75 54.3312C24.275 54.4625 24.6687 54.5937 24.9312 54.725C25.0625 54.8562 24.5375 55.3813 23.75 55.775V54.3312" fill="#ED4C5C"/>
<path d="M18.7625 58.4C18.6313 58.1375 19.55 57.6125 20.7313 57.2187C21.2563 57.0875 21.65 56.825 22.3063 56.5625C23.8813 55.9062 25.1938 54.9875 24.9313 54.725L25.1938 56.3C25.325 56.5625 24.275 57.35 22.7 58.1375C22.175 58.4 21.2563 58.7937 20.7313 58.925C19.8125 59.1875 19.025 59.7125 19.025 59.8437L18.7625 58.4" fill="#ED4C5C"/>
<path d="M48.2937 45.6687H52.4937V48.0312H48.2937V45.6687ZM48.1625 62.9937H52.4937V65.2249H48.1625V62.9937Z" fill="#C8B100"/>
<path d="M52.8876 59.3187C53.2813 59.5812 53.5438 59.8437 53.5438 59.975C53.5438 60.1062 53.4126 60.2375 53.1501 60.3687C52.8876 60.6312 52.625 61.025 52.7563 61.1562C52.4938 60.8937 52.3625 60.6312 52.3625 60.3687C52.3625 59.8437 52.6251 59.45 52.8876 59.3187" fill="#ED4C5C"/>
<path d="M48.8187 48.0312H51.8375V62.9938H48.8187V48.0312Z" fill="white"/>
<path d="M45.6688 53.5438C46.3251 53.2813 47.5063 53.0187 48.8188 53.0187C49.2126 53.0187 49.7376 53.0188 50.2626 53.15C52.1001 53.4125 53.5438 54.2 53.4126 54.725L54.0688 53.15C54.2001 52.4938 52.6251 51.7063 50.6563 51.3125H48.8188C47.5063 51.3125 46.3251 51.4437 45.6688 51.7062V53.5438" fill="#ED4C5C"/>
<path d="M51.8375 55.5125C52.625 55.5125 53.2813 55.25 53.2813 54.8563C53.2813 54.5938 53.0188 54.2 52.4938 53.9375H51.7063L51.8375 55.5125ZM48.8188 54.3312C48.2938 54.4625 47.9 54.5937 47.6375 54.725C47.5063 54.8562 48.0313 55.3813 48.8188 55.775V54.3312" fill="#ED4C5C"/>
<path d="M53.8063 58.4001C53.9375 58.1376 53.0188 57.6125 51.8375 57.2188C51.3125 57.0875 50.9188 56.825 50.2625 56.5625C48.6875 55.9063 47.375 54.9875 47.6375 54.725L47.375 56.3C47.2438 56.5625 48.2938 57.3501 49.8688 58.1376C50.3938 58.4001 51.3125 58.7938 51.8375 58.925C52.7563 59.1875 53.5438 59.8438 53.4125 59.975L53.8063 58.4001V58.4001ZM36.2188 37.2688C38.7125 37.2688 43.8313 37.7938 45.6688 39.6313C43.7 44.3563 40.55 42.3876 36.2188 42.3876C32.0188 42.3876 28.7375 44.3563 26.7688 39.6313C28.6063 37.7938 33.5938 37.2688 36.2188 37.2688Z" fill="#ED4C5C"/>
<path d="M42.6501 42.5187C41.0751 41.6 38.7126 41.4688 36.2188 41.4688C33.725 41.4688 31.3626 41.7312 29.7876 42.5187L30.3125 44.75C31.7563 45.1438 33.8563 45.4062 36.2188 45.4062C38.5813 45.4062 40.5501 45.1438 42.1251 44.75L42.6501 42.5187ZM44.8813 36.875C44.3563 36.4812 43.3063 36.0875 42.3876 36.0875C41.9938 36.0875 41.6001 36.0875 41.2063 36.2188C41.2063 36.2188 40.4188 35.1688 38.5813 35.1688C37.925 35.1688 37.4001 35.3 36.8751 35.5625V35.4312C36.7438 35.1687 36.4813 34.9062 36.2188 34.9062C35.9563 34.9062 35.5626 35.3 35.5626 35.5625V35.6938C35.0375 35.4313 34.5126 35.3 33.8563 35.3C32.0188 35.3 31.2313 36.4813 31.2313 36.35C30.8376 36.2188 30.4438 36.2188 30.05 36.2188C24.0125 36.2188 27.0313 40.2875 27.0313 40.2875L27.6875 39.5C26.2438 37.6625 27.5563 36.6125 30.1813 36.6125C30.575 36.6125 30.8376 36.6125 31.1001 36.7437C30.1813 38.0562 31.8876 39.2375 31.8876 39.2375L32.2813 38.5812C31.3625 37.925 31.2313 35.6938 33.8563 35.6938C34.5126 35.6938 35.0375 35.825 35.5626 36.2188C35.5626 36.35 35.4313 38.1875 35.3 38.45L36.3501 39.3687L37.4001 38.45C37.2688 38.0563 37.1376 36.35 37.1376 36.2188C37.5313 35.9562 38.1876 35.6938 38.8438 35.6938C41.6001 35.6938 41.6001 37.925 40.4188 38.5812L40.8126 39.2375C40.8126 39.2375 42.2563 38.0562 41.6001 36.7437C41.8626 36.7437 42.2563 36.6125 42.5188 36.6125C45.6688 36.6125 45.8001 38.975 45.0126 39.5L45.5376 40.2875C45.2751 40.2875 46.7188 38.45 44.8813 36.875" fill="#C8B100"/>
<path d="M35.4313 34.3813C35.4313 33.9875 35.825 33.5938 36.2188 33.5938C36.7438 33.5938 37.0063 33.9875 37.0063 34.3813C37.0063 34.775 36.6125 35.1688 36.2188 35.1688C35.825 35.1688 35.4313 34.775 35.4313 34.3813Z" fill="#005BBF"/>
<path d="M35.9563 32.15V32.5438H35.5625V32.9375H35.9563V34.25H35.4313V34.6438H37.0063L37.1375 34.3813L37.0063 34.25H36.4813V32.9375H36.875V32.5438H36.4813V32.15H35.9563Z" fill="#C8B100"/>
<path d="M36.2188 45.1438C34.1188 45.1438 32.2813 44.8813 30.8375 44.4875C32.2813 44.0938 34.1188 43.8313 36.2188 43.8313C38.3188 43.8313 40.1563 44.0938 41.6 44.4875C40.2875 44.8813 38.3188 45.1438 36.2188 45.1438Z" fill="#ED4C5C"/>
<path d="M36.35 67.85C33.8563 67.85 31.4938 67.1937 29.3938 66.275C27.8188 65.4875 26.9 64.0437 26.9 62.3375V56.0375H45.8V62.3375C45.8 64.0437 44.75 65.6187 43.3063 66.275C41.2063 67.325 38.8438 67.85 36.35 67.85ZM36.2188 45.5375H45.6688V56.0375H36.2188V45.5375Z" fill="white"/>
<path d="M36.35 62.3375C36.35 64.8312 34.25 66.8 31.625 66.8C29 66.8 26.9 64.8312 26.9 62.3375V56.0375H36.35V62.3375Z" fill="#ED4C5C"/>
<path d="M28.8688 66.0125C29.1313 66.1438 29.525 66.4063 30.05 66.5375V55.775H29L28.8688 66.0125ZM26.7688 62.2063C26.7688 63.5188 27.2938 64.5688 27.8188 65.0938V55.775H26.7688V62.2063Z" fill="#C8B100"/>
<path d="M30.9688 66.8H32.0187V55.775H30.9688V66.8Z" fill="#C7B500"/>
<path d="M33.0687 66.5375C33.4625 66.4063 33.9875 66.1438 34.25 66.0125V55.775H33.2L33.0687 66.5375" fill="#C8B100"/>
<path d="M26.7688 45.5375H36.2188V56.0375H26.7688V45.5375Z" fill="#ED4C5C"/>
<path d="M35.3 65.0938C35.825 64.7 36.2188 63.7813 36.35 62.7313V55.9062H35.3V65.0938Z" fill="#C8B100"/>
<path d="M45.8 56.0375V62.3375C45.8 64.8313 43.7 66.8 41.075 66.8C38.45 66.8 36.35 64.8313 36.35 62.3375V56.0375H45.8V56.0375ZM42.3875 47.375C42.7813 48.1625 42.7813 50.1313 41.6 49.7375C41.8625 49.8688 41.9938 50.7875 42.3875 51.3125C43.0438 52.1 43.8313 51.4438 43.7 50.525C43.4375 49.0813 43.5688 48.1625 43.8313 46.7188C43.8313 46.85 44.4875 46.85 44.75 46.5875C44.6188 46.9813 44.4875 47.5063 44.75 47.5063C44.4875 47.9 43.8313 48.5563 43.7 48.95C43.5688 49.8688 45.0125 51.575 43.4375 51.9688C42.3875 52.2313 43.0438 53.0188 43.4375 53.4125C43.4375 53.4125 42.9125 55.1188 43.175 54.9875C42.125 55.3813 42.3875 54.4625 42.3875 54.4625C42.9125 52.8875 41.4688 52.7563 41.6 52.4938C40.2875 52.3625 41.7313 53.675 40.55 53.675C40.2875 53.675 39.7625 53.9375 39.7625 53.9375C38.3188 53.8063 39.1063 52.4938 39.6313 52.625C40.025 52.7563 40.4188 53.4125 40.4188 52.4938C40.4188 52.4938 39.7625 51.4438 41.4688 51.4438C40.8125 51.4438 40.4188 50.9188 40.1563 50.2625C39.8938 50.3938 39.5 51.05 38.0563 51.1813C38.0563 51.1813 37.6625 49.7375 38.0563 50C38.5813 50.2625 38.8438 50.2625 39.3688 49.7375C39.1063 49.3438 37.5313 48.8188 37.7938 47.9C37.7938 47.6375 38.5813 47.2438 38.5813 47.2438C38.45 47.9 38.8438 48.5563 39.6313 48.5563C40.6813 48.6875 40.2875 48.2938 40.4188 48.0313C40.55 47.7688 41.3375 48.1625 41.075 47.5063C41.075 47.375 40.1563 47.2438 40.4188 46.85C40.9438 46.1938 41.7313 46.7188 42.3875 47.375V47.375ZM36.35 66.5375L36.0875 65.8813L36.35 65.0938L36.6125 65.8813L36.35 66.5375Z" fill="#ED4C5C"/>
<path d="M29.6563 47.7687V48.425H29.9188V48.95H29.2625V50.2625H29.6563V53.15H28.8688V54.5938H34.25V53.15H33.5938V50.2625H33.8563V48.95H33.2V48.425H33.5938V47.7687H32.2813V48.425H32.5438V48.95H31.8875V47.375H32.2813V46.7188H30.8375V47.375H31.2313V48.95H30.575V48.425H30.8375V47.7687H29.6563ZM44.4875 63.9125V57.35H37.6625V63.9125L40.8125 65.3563H41.2063L44.4875 63.9125ZM40.8125 57.875V60.1063L38.5813 57.875H40.8125ZM38.0563 58.0062L40.6813 60.6312L38.0563 63.2562V58.0062ZM38.3188 63.7812L40.8125 61.2875V64.9625L38.3188 63.7812ZM41.2063 64.8312V61.1562L43.7 63.65L41.2063 64.8312ZM43.9625 63.2562L41.3375 60.6312L43.9625 58.0062V63.2562ZM41.2063 57.875H43.4375L41.2063 60.1063V57.875Z" fill="#C8B100"/>
<path d="M33.2 55.9063C33.2 53.9375 34.5125 52.4938 36.2187 52.4938C37.925 52.4938 39.2374 54.0688 39.2374 55.9063C39.2374 57.7438 37.925 59.3188 36.2187 59.3188C34.5125 59.3188 33.2 57.875 33.2 55.9063Z" fill="#ED4C5C"/>
<path d="M34.1188 55.9062C34.1188 54.4625 35.0375 53.4125 36.2188 53.4125C37.4 53.4125 38.3188 54.5937 38.3188 55.9062C38.3188 57.35 37.4 58.4 36.2188 58.4C35.1688 58.5312 34.1188 57.35 34.1188 55.9062Z" fill="#005BBF"/>
<path d="M35.3 54.2L34.775 55.6437L35.1688 55.775L34.9063 56.2999H35.6938L35.4313 55.775L35.825 55.6437L35.3 54.2V54.2ZM37.2688 54.2L36.7438 55.6437L37.1375 55.775L36.875 56.2999H37.6625L37.5313 55.775L37.925 55.6437L37.2688 54.2V54.2ZM36.35 55.9062L35.6938 57.3499L36.0875 57.4812L35.9563 58.0062H36.6125L36.4813 57.4812L36.875 57.3499L36.35 55.9062Z" fill="#C8B100"/>
</svg>
