<svg width="100" height="100" viewBox="0 0 100 100" fill="none" xmlns="http://www.w3.org/2000/svg">
<rect width="100" height="100" rx="16.6667" fill="#EBF9FF"/>
<path d="M39.75 81C45.684 81 50.5 76.2213 50.5 70.3333V59.6666H39.75C33.816 59.6666 29 64.4453 29 70.3333C29 76.2213 33.816 81 39.75 81Z" fill="#0ACF83"/>
<path d="M29 49C29 43.112 33.816 38.3334 39.75 38.3334H50.5V59.6667H39.75C33.816 59.6667 29 54.888 29 49Z" fill="#A259FF"/>
<path d="M29 27.6667C29 21.7787 33.816 17 39.75 17H50.5V38.3333H39.75C33.816 38.3333 29 33.5547 29 27.6667Z" fill="#F24E1E"/>
<path d="M50.5 17H61.25C67.184 17 72 21.7787 72 27.6667C72 33.5547 67.184 38.3333 61.25 38.3333H50.5V17Z" fill="#FF7262"/>
<path d="M72 49C72 54.888 67.184 59.6667 61.25 59.6667C55.316 59.6667 50.5 54.888 50.5 49C50.5 43.112 55.316 38.3334 61.25 38.3334C67.184 38.3334 72 43.112 72 49Z" fill="#1ABCFE"/>
</svg>
