<svg width="100" height="100" viewBox="0 0 100 100" fill="none" xmlns="http://www.w3.org/2000/svg">
<rect width="100" height="100" rx="16.6667" fill="#EBF9FF"/>
<path fill-rule="evenodd" clip-rule="evenodd" d="M40.6642 16.6666C34.2918 16.6666 29.1668 22.013 29.1668 28.5625C29.1668 32.5442 31.0627 36.0807 33.9767 38.2395C32.4748 39.3648 31.2575 40.8262 30.4222 42.5067C29.5869 44.1872 29.157 46.04 29.1668 47.9166C29.1668 51.901 31.0627 55.4349 33.9767 57.5937C32.4748 58.7189 31.2575 60.1804 30.4222 61.8609C29.5869 63.5414 29.157 65.3942 29.1668 67.2708C29.1668 73.8203 34.2918 79.1666 40.6642 79.1666C47.034 79.1666 52.1616 73.8203 52.1616 67.2708V57.2135C54.1755 58.8926 56.714 59.8131 59.3361 59.8151C65.7085 59.8125 70.8335 54.4661 70.8335 47.9166C70.844 46.0399 70.4143 44.1869 69.579 42.5063C68.7436 40.8257 67.5259 39.3643 66.0236 38.2395C67.5255 37.1143 68.7428 35.6529 69.5781 33.9724C70.4134 32.2919 70.8433 30.4391 70.8335 28.5625C70.8335 22.013 65.7085 16.6666 59.3361 16.6666H40.6642V16.6666ZM33.4871 28.5625C33.4871 24.4192 36.7215 21.1015 40.6642 21.1015H47.8387V36.0234H40.6642C36.7215 36.0234 33.4871 32.7031 33.4871 28.5625V28.5625ZM59.3361 36.0208H52.1616V21.0989H59.3361C63.2814 21.0989 66.5132 24.4192 66.5132 28.5625C66.5132 32.7031 63.2814 36.0208 59.3361 36.0208ZM33.4897 47.9166C33.4897 43.776 36.7241 40.4557 40.6668 40.4557H47.8413V55.3776H40.6642C36.7189 55.3776 33.4871 52.0573 33.4871 47.9166H33.4897ZM52.1616 47.9166C52.1616 43.776 55.396 40.4557 59.3387 40.4557C63.284 40.4557 66.5158 43.7734 66.5158 47.9166C66.5158 52.0573 63.284 55.3776 59.3387 55.3776C55.396 55.3776 52.1642 52.0599 52.1642 47.9166H52.1616ZM33.4897 67.2708C33.4897 63.1302 36.7241 59.8125 40.6668 59.8125H47.8413V67.2708C47.8413 71.414 44.6121 74.7317 40.6668 74.7317C36.7241 74.7317 33.4897 71.414 33.4897 67.2708Z" fill="#012454"/>
</svg>
