<svg width="100" height="100" viewBox="0 0 100 100" fill="none" xmlns="http://www.w3.org/2000/svg">
<rect width="100" height="100" rx="16.6667" fill="#EBF9FF"/>
<path d="M29.6196 81.8519L25.1958 33.8125H73.8042L69.3746 81.8443L49.4705 87.1875L29.6196 81.8519Z" fill="#E44F26"/>
<path d="M49.5 83.1044L65.5847 78.7867L69.3686 37.7413H49.5V83.1044Z" fill="#F1662A"/>
<path d="M49.5 55.5571H41.4478L40.8926 49.5238H49.5V43.6316H34.2422L34.3879 45.2138L35.8822 61.4493H49.5V55.5571V55.5571ZM49.5 70.8586L49.4724 70.8662L42.696 69.0953L42.2629 64.3964H36.1538L37.0063 73.6455L49.4724 76.9967L49.5 76.9891V70.8586Z" fill="#EBEBEB"/>
<path d="M49.4783 55.5571V61.4493H56.9714L56.2666 69.0915L49.4783 70.8643V76.9948L61.9543 73.6455L62.0449 72.6504L63.4742 57.1393L63.6238 55.5571H49.4783V55.5571ZM49.4783 43.6316V49.5238H64.177L64.2991 48.2009L64.5767 45.2138L64.7224 43.6316H49.4783V43.6316Z" fill="white"/>
<path d="M35.6823 17.4V30H31.4343V25.356H27.5103V30H23.2623V17.4H27.5103V21.864H31.4343V17.4H35.6823ZM40.4651 20.694H36.7751V17.4H48.4031V20.694H44.7131V30H40.4651V20.694ZM60.7565 30L60.7205 24.258L57.9845 28.866H56.1125L53.3765 24.456V30H49.5065V17.4H52.9985L57.1025 24.114L61.0985 17.4H64.5905L64.6265 30H60.7565ZM66.6803 17.4H70.9283V26.706H76.6163V30H66.6803V17.4Z" fill="#012454"/>
</svg>
