<svg width="100" height="100" viewBox="0 0 100 100" fill="none" xmlns="http://www.w3.org/2000/svg">
<rect width="100" height="100" rx="16.6667" fill="#EBF9FF"/>
<path d="M30.7583 17H33.6887V19.8507H36.37V17H39.3004V25.6293H36.37V22.7413H33.6887V25.6293H30.761V17H30.7583ZM43.1517 19.8613H40.5733V17H48.6631V19.8613H46.0821V25.6293H43.1517V19.8613V19.8613ZM49.9469 17H53.0019L54.8815 20.032L56.7583 17H59.8133V25.6293H56.8965V21.352L54.8815 24.4213H54.83L52.8123 21.3547V25.6293H49.9469V17V17ZM61.2704 17H64.2035V22.7787H68.3202V25.632H61.2704V17V17Z" fill="#012454"/>
<path fill-rule="evenodd" clip-rule="evenodd" d="M30.6662 75.8586L25.125 29.5786H73.875L68.331 75.8533L49.4729 80.9999L30.6662 75.8586ZM41.8706 50.5253L41.3452 44.7119H63.4046L63.9192 39.0373H35.0483L36.6029 56.2026H56.5823L55.9133 63.5626L49.4838 65.2746H49.4783L43.0596 63.5679L42.6479 59.0426H36.8575L37.6646 67.9546L49.4729 71.1813L61.3002 67.9546L62.741 52.0506L62.8819 50.5279H41.8706V50.5253Z" fill="#012454"/>
</svg>
