<svg width="100" height="100" viewBox="0 0 100 100" fill="none" xmlns="http://www.w3.org/2000/svg">
<rect x="14" y="17" width="72" height="65" rx="16.6667" fill="#012454"/>
<path d="M43.875 44.7083C43.4583 43.4167 43.0833 42.1667 42.6667 40.875C42.25 39.5833 41.875 38.375 41.5417 37.1667C41.2083 36 40.9167 34.9167 40.625 33.9167H40.5417C40.1667 35.7083 39.7083 37.5 39.125 39.2917C38.5 41.2917 37.875 43.375 37.2083 45.4583C36.625 47.5833 36 49.5417 35.375 51.2917H45.9583C45.7083 50.4125 45.375 49.375 45 48.2875C44.625 47.1667 44.25 45.9583 43.875 44.7083V44.7083ZM82.2917 1.25H17.7083C7.91667 1.25 0 9.16667 0 18.9583V81.0417C0 90.8333 7.91667 98.75 17.7083 98.75H82.2917C92.0833 98.75 100 90.8333 100 81.0417V18.9583C100 9.16667 92.0833 1.25 82.2917 1.25ZM61.25 70.125H52.5375C52.25 70.1667 51.9583 69.9583 51.875 69.6667L48.4583 59.75H32.9583L29.7917 69.5417C29.7083 69.9167 29.375 70.1667 29 70.1292H21.1667C20.7083 70.1292 20.5833 69.875 20.7083 69.3792L34.125 30.75C34.25 30.3333 34.375 29.875 34.5417 29.375C34.7083 28.5 34.7917 27.5833 34.7917 26.6667C34.75 26.4583 34.9167 26.25 35.125 26.2083H45.9167C46.25 26.2083 46.4167 26.3333 46.4583 26.5417L61.6667 69.4583C61.7917 69.9125 61.6667 70.125 61.25 70.125V70.125ZM75.4167 69.5C75.4167 69.9583 75.2542 70.1667 74.8792 70.1667H66.7083C66.2917 70.1667 66.0833 69.9125 66.0833 69.5V37.4167C66.0833 37 66.2542 36.8333 66.6292 36.8333H74.8792C75.2542 36.8333 75.4167 37.0417 75.4167 37.4167V69.5V69.5ZM74.5458 31.875C74.0538 32.3748 73.4604 32.7634 72.8057 33.015C72.151 33.2665 71.4501 33.3751 70.75 33.3333C69.375 33.375 68.0417 32.8333 67.0375 31.875C66.0829 30.8312 65.5744 29.4554 65.6208 28.0417C65.5792 26.625 66.1208 25.2917 67.1167 24.3333C68.125 23.375 69.4583 22.875 70.8333 22.875C72.4625 22.875 73.7042 23.375 74.625 24.3333C75.5417 25.3333 76.0417 26.6667 76 28.0417C76.0417 29.4583 75.5417 30.8333 74.5458 31.875V31.875Z" fill="#EBF9FF"/>
</svg>
