<svg width="100" height="100" viewBox="0 0 100 100" fill="none" xmlns="http://www.w3.org/2000/svg">
<rect width="100" height="100" rx="16" fill="#EBF9FF"/>
<path d="M21.1302 21.9132H78.8787V78.0867H21.1302V21.9132Z" fill="#1C0A00"/>
<path d="M21.1302 21.9132H78.8787V78.0867H21.1302V21.9132ZM18.5 80.7125H81.5V19.2875H18.5V80.7125ZM59.765 41.18C59.765 40.9707 59.8437 40.865 60.08 40.865H64.202C64.4113 40.865 64.517 40.9437 64.517 41.18V61.8912C64.517 62.1005 64.4653 62.2062 64.202 62.2062H60.1362C59.873 62.2062 59.7943 62.0757 59.7943 61.8642V41.18H59.7672H59.765ZM59.477 35.222C59.477 34.5119 59.7591 33.8308 60.2612 33.3287C60.7634 32.8266 61.4444 32.5445 62.1545 32.5445C62.8646 32.5445 63.5457 32.8266 64.0478 33.3287C64.5499 33.8308 64.832 34.5119 64.832 35.222C64.858 35.5847 64.8047 35.9488 64.676 36.2889C64.5473 36.6291 64.3462 36.9372 64.0865 37.1919C63.8269 37.4466 63.515 37.6418 63.1725 37.7639C62.83 37.8861 62.4649 37.9324 62.1027 37.8995C61.7479 37.9217 61.3924 37.8673 61.0605 37.7398C60.7285 37.6123 60.428 37.4148 60.1792 37.1607C59.9305 36.9067 59.7394 36.602 59.619 36.2674C59.4986 35.9329 59.4517 35.5763 59.4815 35.222H59.477ZM47.6645 49.8177C46.9287 46.8927 45.1895 40.5522 44.5415 37.481H44.4897C43.9385 40.5522 42.548 45.7497 41.4455 49.8177H47.6645ZM40.3677 54.0702L38.2932 61.9452C38.2415 62.1545 38.1627 62.2085 37.8995 62.2085H34.0453C33.782 62.2085 33.7302 62.1297 33.782 61.8147L41.2362 35.7147C41.4177 35.0031 41.5062 34.271 41.4995 33.5367C41.4995 33.3522 41.5782 33.2735 41.7087 33.2735H47.2213C47.4058 33.2735 47.4845 33.3252 47.5362 33.5367L55.8837 61.8597C55.9355 62.069 55.8837 62.2017 55.6745 62.2017H51.3162C51.107 62.2017 50.9742 62.15 50.9225 61.9767L48.7693 54.0747H40.37L40.3677 54.0702Z" fill="#FF7F18"/>
</svg>
