<svg width="100" height="100" viewBox="0 0 100 100" fill="none" xmlns="http://www.w3.org/2000/svg">
<path d="M10.2313 50C10.2313 67.1938 21.2563 81.7625 36.4813 87.1438V12.8563C21.2563 18.2375 10.2313 32.8063 10.2313 50Z" fill="#75A843"/>
<path d="M88.9813 50C88.9813 32.8063 77.9563 18.2375 62.7313 12.8563V87.1438C78.0875 81.7625 88.9813 67.1938 88.9813 50" fill="#ED4C5C"/>
<path d="M36.4813 87.1437C40.55 88.5875 45.0125 89.375 49.6063 89.375C54.2 89.375 58.6625 88.5875 62.7313 87.1437V12.8563C58.6625 11.4125 54.2 10.625 49.6063 10.625C45.0125 10.625 40.55 11.4125 36.4813 12.8563V87.1437" fill="white"/>
</svg>
