<svg width="100" height="100" viewBox="0 0 100 100" fill="none" xmlns="http://www.w3.org/2000/svg">
<rect width="100" height="100" rx="16.6667" fill="#EBF9FF"/>
<path d="M71.1071 22H27.8929C24.6395 22 22 24.6875 22 28V72C22 75.3125 24.6395 78 27.8929 78H71.1071C74.3605 78 77 75.3125 77 72V28C77 24.6875 74.3605 22 71.1071 22ZM51.9308 65.675C51.9308 71.125 48.7879 73.6125 44.2087 73.6125C40.0714 73.6125 37.6775 71.4375 36.4498 68.8L40.6607 66.2125C41.471 67.675 42.2076 68.9125 43.9877 68.9125C45.6819 68.9125 46.7623 68.2375 46.7623 65.6V47.7125H51.9308V65.675V65.675ZM64.1585 73.6125C59.3583 73.6125 56.2522 71.2875 54.7422 68.2375L58.9531 65.7625C60.058 67.6 61.5067 68.9625 64.048 68.9625C66.1842 68.9625 67.5592 67.875 67.5592 66.3625C67.5592 64.5625 66.1596 63.925 63.7902 62.8625L62.5011 62.3C58.769 60.6875 56.3013 58.65 56.3013 54.3625C56.3013 50.4125 59.26 47.4125 63.8638 47.4125C67.154 47.4125 69.5112 48.575 71.2054 51.625L67.1786 54.25C66.2946 52.6375 65.3371 52 63.8516 52C62.3415 52 61.3839 52.975 61.3839 54.25C61.3839 55.825 62.3415 56.4625 64.5636 57.45L65.8527 58.0125C70.2478 59.925 72.7154 61.8875 72.7154 66.2875C72.7154 71.0125 69.0569 73.6125 64.1585 73.6125V73.6125Z" fill="#012454"/>
</svg>
