<svg width="100" height="100" viewBox="0 0 100 100" fill="none" xmlns="http://www.w3.org/2000/svg">
<rect width="100" height="100" rx="16.6667" fill="#EBF9FF"/>
<path d="M18.5 18.5H81.5V81.5H18.5V18.5Z" fill="#F5DE19"/>
<path d="M60.8202 67.7187C61.357 68.809 62.191 69.7255 63.226 70.3624C64.261 70.9993 65.455 71.3308 66.6702 71.3187C69.1227 71.3187 70.691 70.0924 70.691 68.3937C70.691 66.3687 69.08 65.6442 66.38 64.4629L64.8995 63.8284C60.6245 62.0082 57.7895 59.7289 57.7895 54.9094C57.7895 50.4702 61.1645 47.0884 66.4587 47.0884C68.1726 46.9646 69.8849 47.3482 71.3822 48.1913C72.8794 49.0343 74.0953 50.2996 74.8782 51.8292L70.25 54.7879C69.9485 54.0295 69.4236 53.3806 68.7449 52.9273C68.0662 52.4741 67.2658 52.2378 66.4497 52.2499C66.0937 52.2143 65.7341 52.2532 65.394 52.3642C65.0538 52.4752 64.7405 52.6558 64.474 52.8946C64.2075 53.1333 63.9936 53.425 63.8461 53.751C63.6985 54.077 63.6205 54.4301 63.617 54.7879C63.617 56.5632 64.7172 57.2832 67.2575 58.3879L68.738 59.0224C73.769 61.1802 76.613 63.3784 76.613 68.3217C76.613 73.6519 72.4257 76.5724 66.803 76.5724C64.6122 76.712 62.4278 76.2146 60.5134 75.1402C58.599 74.0658 57.0364 72.4604 56.0142 70.5177L60.8202 67.7187ZM39.9065 68.2317C40.8357 69.8809 41.6817 71.2759 43.7157 71.2759C45.6597 71.2759 46.8882 70.5154 46.8882 67.5567V47.4259H52.808V67.6354C52.808 73.7644 49.208 76.5544 43.9677 76.5544C42.1154 76.6557 40.2758 76.194 38.6908 75.2302C37.1057 74.2664 35.8494 72.8456 35.087 71.1544L39.9065 68.2317Z" fill="black"/>
</svg>
