<svg width="100" height="100" viewBox="0 0 100 100" fill="none" xmlns="http://www.w3.org/2000/svg">
<rect width="100" height="100" rx="16.6667" fill="#0A66C2"/>
<rect x="16" y="21" width="65" height="60" fill="white"/>
<path d="M78.8675 78.8688H66.7177V59.8412C66.7177 55.304 66.6367 49.4631 60.3986 49.4631C54.0705 49.4631 53.1022 54.4068 53.1022 59.511V78.8675H40.9527V39.7394H52.6163V45.0867H52.7796C53.9469 43.0908 55.6336 41.4489 57.6602 40.3359C59.6868 39.2228 61.9773 38.6802 64.2878 38.766C76.6022 38.766 78.8726 46.866 78.8726 57.4037L78.8675 78.8688V78.8688ZM27.2434 34.3911C23.3493 34.3918 20.192 31.2354 20.1914 27.3414C20.1907 23.4473 23.3468 20.29 27.2408 20.2894C31.1348 20.2884 34.2922 23.4448 34.2928 27.3388C34.2931 29.2088 33.5506 31.0024 32.2286 32.3249C30.9066 33.6475 29.1134 34.3907 27.2434 34.3911V34.3911ZM33.3184 78.8691H21.1558V39.7394H33.3181V78.8688L33.3184 78.8691ZM84.9246 9.00572H15.0507C11.7482 8.96857 9.03999 11.614 8.99963 14.9165V85.0819C9.03871 88.3859 11.7466 91.0339 15.0503 90.9993H84.9246C88.2353 91.0403 90.9538 88.3923 90.9996 85.0819V14.911C90.9526 11.6022 88.2337 8.95704 84.9246 9.00028" fill="#0A66C2"/>
</svg>
