<svg width="100" height="100" viewBox="0 0 100 100" fill="none" xmlns="http://www.w3.org/2000/svg">
<rect width="100" height="100" rx="16.6667" fill="#D14A4A"/>
<path fill-rule="evenodd" clip-rule="evenodd" d="M40.3848 54.5356L50.0068 61.1146L59.282 54.7158L80.073 75.228C79.5256 75.4048 78.9408 75.5 78.3322 75.5H21.6678C20.9198 75.5 20.2058 75.3538 19.5496 75.092L40.3848 54.5356V54.5356ZM84 37.6784V69.8322C84 70.672 83.8164 71.4676 83.49 72.185L63.1104 52.0774L84 37.6784ZM16 37.8586L36.5428 51.9074L16.3604 71.8246C16.1214 71.1876 15.9993 70.5126 16 69.8322V37.862V37.8586ZM78.3322 24.5C81.4602 24.5 84 27.0364 84 30.1678V32.1602L49.9932 55.6032L16 32.354V30.1678C16 27.0398 18.5364 24.5 21.6678 24.5H78.3322V24.5Z" fill="#F8F8F8"/>
</svg>
